# xmcd
#
# Track frame offsets: 
#        150
#        14460
#        30460
#        46260
#        64378
#        81363
#        98028
#        120328
#        142103
#        157543
#        172915
#        193660
#        206973
#        233550
#
# Disc length: 3416 seconds
#
# Revision: 22
# Processed by: cddbd v1.5.2PL0 Copyright (c) Steve Scherf et al.
# Submitted via: ExactAudioCopyFreeDBPlugin 1.0
#
DISCID=b10d560e
DTITLE=Lou Reed - The Sire Years: The Complete Albums Box
DYEAR=1989
DGENRE=Rock
TTITLE0=Romeo had Juliette
TTITLE1=Halloween Parade
TTITLE2=Dirty Blvd.
TTITLE3=Endless Cycle
TTITLE4=There Is No Time
TTITLE5=Last Great American Whale
TTITLE6=Beginning of a Great Adventure
TTITLE7=Busload of Faith
TTITLE8=Sick of You
TTITLE9=Hold On
TTITLE10=Good Evening Mr. Waldheim
TTITLE11=Xmas in February
TTITLE12=Strawman
TTITLE13=Dime Store Mystery
EXTD=
EXTT0=
EXTT1=
EXTT2=
EXTT3=
EXTT4=
EXTT5=
EXTT6=
EXTT7=
EXTT8=
EXTT9=
EXTT10=
EXTT11=
EXTT12=
EXTT13=
PLAYORDER=
